<svg viewBox="0 0 384 384" xmlns="http://www.w3.org/2000/svg">
    <!-- Градиентный фон -->
    <defs>
        <radialGradient id="eyeGradient" cx="50%" cy="50%" r="50%" fx="50%" fy="50%">
            <stop offset="0%" stop-color="#6B4BD1"/>
            <stop offset="75%" stop-color="#3F2C78"/>
        </radialGradient>
        <filter id="glow" x="-20%" y="-20%" width="140%" height="140%">
            <feGaussianBlur stdDeviation="8" result="blur"/>
            <feComposite in="SourceGraphic" in2="blur" operator="over"/>
        </filter>
    </defs>

    <!-- Щит безопасности -->
    <path d="M192 64C230 90 280 102 320 112C320 202 290 262 192 320C94 262 64 202 64 112C104 102 154 90 192 64Z"
          fill="#242A3D" stroke="#4D5677" stroke-width="4"/>

    <!-- Глаз -->
    <ellipse cx="192" cy="184" rx="72" ry="60" fill="url(#eyeGradient)" filter="url(#glow)"/>
    <ellipse cx="192" cy="184" rx="32" ry="32" fill="#1C2438"/>

    <!-- Блик в глазу -->
    <circle cx="174" cy="172" r="12" fill="#5B40B3"/>
    <circle cx="180" cy="162" r="6" fill="#FFFFFF" opacity="0.9"/>

    <!-- Световые линии безопасности -->
    <path d="M94 184 L 120 184" stroke="#6B4BD1" stroke-width="4" stroke-linecap="round"/>
    <path d="M264 184 L 290 184" stroke="#6B4BD1" stroke-width="4" stroke-linecap="round"/>
    <path d="M192 116 L 192 140" stroke="#6B4BD1" stroke-width="4" stroke-linecap="round"/>
    <path d="M192 228 L 192 252" stroke="#6B4BD1" stroke-width="4" stroke-linecap="round"/>

    <!-- Излучение от глаза -->
    <path d="M192 184 L 306 120" stroke="#6B4BD1" stroke-width="2" opacity="0.5"/>
    <path d="M192 184 L 306 184" stroke="#6B4BD1" stroke-width="2" opacity="0.5"/>
    <path d="M192 184 L 306 248" stroke="#6B4BD1" stroke-width="2" opacity="0.5"/>
    <path d="M192 184 L 78 120" stroke="#6B4BD1" stroke-width="2" opacity="0.5"/>
    <path d="M192 184 L 78 184" stroke="#6B4BD1" stroke-width="2" opacity="0.5"/>
    <path d="M192 184 L 78 248" stroke="#6B4BD1" stroke-width="2" opacity="0.5"/>
</svg>
